<svg width="181" height="31" viewBox="0 0 181 31" fill="none" xmlns="http://www.w3.org/2000/svg">
<path opacity="0.6" fill-rule="evenodd" clip-rule="evenodd" d="M6.00644 0.904285C2.7238 2.03683 1.00695 5.09713 1.26165 9.36083C1.41385 11.9071 2.05965 13.336 3.74601 14.8593L4.91985 15.9195L2.53658 21.1913L0.15332 26.4633L1.41781 26.5508C2.1133 26.5988 2.83788 26.5785 3.0282 26.5057C3.21853 26.4326 4.36244 24.1384 5.57045 21.4075L7.76706 16.4421H9.00218H10.237V21.5233V26.6045H11.5077H12.7784V13.478V0.351562L10.1664 0.360878C8.35807 0.367089 7.07806 0.534204 6.00644 0.904285ZM10.1723 8.46739L10.2486 14.1837L8.90165 14.1832C7.35422 14.1829 5.84915 13.5113 5.09916 12.4872C4.26502 11.3479 3.89228 8.69039 4.29495 6.75671C4.86337 4.0281 6.59519 2.5681 9.1075 2.69936L10.0958 2.75102L10.1723 8.46739Z" fill="#FEFEFE"/>
<path opacity="0.6" fill-rule="evenodd" clip-rule="evenodd" d="M87.0679 2.96274C86.9804 4.39875 86.8353 7.93301 86.7452 10.8166C86.4834 19.2181 85.6428 23.5038 84.0948 24.3321C83.5554 24.6206 83.5035 24.8952 83.5035 27.4612C83.5035 30.2327 83.5134 30.2742 84.173 30.2742C84.8053 30.2742 84.8535 30.1483 85.0396 28.0159L85.2364 25.7576H90.4246C93.2777 25.7576 95.681 25.8686 95.7649 26.0043C95.849 26.1401 96.0023 27.1628 96.106 28.2768C96.2777 30.1255 96.346 30.2951 96.8876 30.2178C97.4456 30.1382 97.4812 29.9634 97.4812 27.3102V24.4873L96.7046 24.3981L95.9281 24.3086V12.3302V0.351562H91.5775H87.2272L87.0679 2.96274ZM93.9514 13.0546V24.3462H90.132H86.3129L86.7503 23.5001C87.6626 21.7364 88.4982 12.6348 88.5708 3.66846L88.5863 1.76301H91.2689H93.9514V13.0546ZM46.8422 7.70012C44.0901 8.31834 42.4713 11.9144 42.4628 17.4301C42.4566 21.1986 43.0529 23.2207 44.6371 24.8046C46.5431 26.7098 48.8775 27.0161 51.8066 25.7455C53.1214 25.175 53.1479 25.1177 52.6967 23.8236C52.3488 22.826 52.2409 22.7843 51.4861 23.3556C50.6817 23.9645 48.622 24.1875 47.6229 23.7737C46.483 23.302 45.6844 21.6763 45.4712 19.3942L45.301 17.5712H49.1537H53.0067L53.0022 15.6658C52.9971 13.4134 52.464 10.9459 51.6999 9.63804C50.7802 8.06399 48.7784 7.2654 46.8422 7.70012ZM72.434 7.67415C68.8289 8.38411 66.8638 12.3723 67.2098 18.2769C67.4458 22.3094 68.6931 24.817 71.0789 26.0566C72.266 26.6736 75.055 26.5285 76.2546 25.7875C76.8247 25.4352 77.2912 25.1129 77.2912 25.0711C77.2912 24.7318 76.6316 23.2193 76.487 23.2269C76.3856 23.2325 75.9852 23.4186 75.5969 23.6404C74.7648 24.1161 72.9638 24.1855 72.1909 23.7723C71.8907 23.6116 71.3638 22.9449 71.0196 22.2903C70.1552 20.6465 69.9316 14.9507 70.6466 12.7983C71.5092 10.2026 73.5071 9.2801 75.5582 10.5304C76.0804 10.8485 76.5452 11.0704 76.5906 11.0232C76.6364 10.9761 76.7614 10.348 76.8687 9.62759C77.0619 8.32878 77.0554 8.31495 76.1185 8.02447C74.601 7.5539 73.5514 7.45425 72.434 7.67415ZM103.05 7.87768C101.79 8.49872 100.894 9.63183 100.132 11.5681C99.5871 12.953 99.4889 13.7434 99.4747 16.8655C99.4601 20.0689 99.5431 20.7597 100.128 22.301C100.891 24.3114 102.109 25.5563 103.811 26.0662C106.262 26.8001 108.97 24.2502 109.723 20.4988C110.828 15.0015 109.409 9.37297 106.573 8.00048C105.115 7.29475 104.292 7.26596 103.05 7.87768ZM116.024 8.01459C113.489 9.26909 112.462 12.1659 112.646 17.5421C112.785 21.5837 113.328 23.3023 114.973 24.8955C116.805 26.6711 120.009 26.5692 121.718 24.681C122.143 24.2118 122.176 24.0018 121.904 23.4942L121.574 22.8774L120.765 23.652C119.731 24.6429 117.488 24.9438 116.409 24.2364C114.706 23.1207 113.851 19.1698 114.318 14.5679C114.606 11.7199 115.199 10.3658 116.566 9.43253C117.758 8.61841 118.986 8.74629 120.41 9.83254C121.212 10.4437 121.451 10.5143 121.651 10.1989C122.04 9.58412 121.956 9.24679 121.246 8.5803C119.911 7.32665 117.863 7.10449 116.024 8.01459ZM137.861 7.75376C136.29 8.31043 135.421 9.09322 135.627 9.7645C135.894 10.6354 135.918 10.6402 136.754 9.98243C137.7 9.23803 139.457 8.74911 140.365 8.9772C140.744 9.07233 141.352 9.46697 141.716 9.85371C142.267 10.4406 142.394 10.9205 142.477 12.7508L142.576 14.9442L140.521 15.1353C136.599 15.4998 134.896 17.2539 134.896 20.9293C134.896 23.488 135.691 25.0767 137.335 25.8036C138.349 26.2519 138.75 26.2948 139.656 26.0509C140.689 25.7729 142.238 24.5579 142.238 24.0255C142.238 23.8914 142.365 23.7816 142.52 23.7816C142.676 23.7816 142.803 24.0252 142.803 24.323C142.803 25.2673 143.127 25.7576 143.751 25.7579L144.356 25.7582L144.269 18.3478C144.191 11.6211 144.13 10.8285 143.617 9.75462C142.689 7.81445 140.165 6.93709 137.861 7.75376ZM174.057 7.81784C172.672 8.31184 171.888 9.02999 171.888 9.80487C171.888 10.7658 172.182 10.8366 173.069 10.09C173.521 9.71031 174.4 9.26231 175.023 9.09463C175.967 8.84057 176.331 8.87473 177.199 9.29901C178.44 9.90537 178.907 11.0145 178.931 13.4075L178.947 15.0306H177.831C175.708 15.0306 173.851 15.6087 172.734 16.6171C169.934 19.1464 170.773 25.1117 174.057 26.0179C175.522 26.4227 176.639 26.0893 177.84 24.8884C178.931 23.7977 179.229 23.8682 179.229 25.2162C179.229 25.6337 179.43 25.7576 180.107 25.7576C180.833 25.7576 180.948 25.6726 180.776 25.2636C180.662 24.9918 180.489 21.4609 180.393 17.4168C180.195 9.10734 180.15 8.92836 178.007 7.95588C176.622 7.32722 175.54 7.28939 174.057 7.81784ZM16.1494 8.03097C16.0712 8.23506 16.0407 12.4022 16.0817 17.2915L16.1565 26.181H17.5684H18.9803L19.0286 22.0879L19.0769 17.9947H21.1464H23.2159L23.2642 22.0879L23.3125 26.181H24.6137H25.9149V17.0066V7.83223H24.6154H23.3162L23.3218 11.7137L23.3275 15.5952H21.2325H19.1373L19.0588 11.7137L18.9803 7.83223L17.6362 7.74613C16.721 7.68742 16.2466 7.77832 16.1494 8.03097ZM30.6987 10.4434C30.6984 14.3833 30.209 19.0603 29.5339 21.5778C29.0549 23.3641 28.8434 23.7646 28.3428 23.8361C27.7633 23.9185 27.734 24.0664 27.734 26.8868V29.8508L28.9341 29.9375L30.1342 30.0244V28.1732V26.3222H34.0739H38.0139L38.0978 28.0865L38.1819 29.8508L39.382 29.9375L40.5821 30.0244V26.9029V23.7816H39.8762H39.1703V15.7363V7.69109H34.9346H30.6989L30.6987 10.4434ZM55.9647 8.03097C55.8864 8.23506 55.8559 12.4022 55.8969 17.2915L55.9717 26.181H57.3322H58.6924L58.6856 21.7003C58.682 19.2356 58.7667 17.307 58.874 17.4145C58.9813 17.5218 60.0941 19.5382 61.347 21.8953L63.625 26.181L65.0928 26.2663C65.9004 26.3134 66.5609 26.2426 66.5609 26.1093C66.5609 25.9761 65.4265 23.7531 64.0404 21.1696L61.5196 16.4725L63.6213 12.516C66.4183 7.251 66.3248 7.69109 64.6461 7.69109H63.2356L61.1567 11.7812C60.0134 14.0307 58.9946 15.8727 58.8926 15.8744C58.7907 15.8761 58.7034 14.0674 58.6983 11.8549L58.6893 7.83223L57.3983 7.74613C56.5266 7.68798 56.0609 7.78057 55.9647 8.03097ZM123.709 8.09843C123.362 9.00232 123.761 9.24368 125.603 9.24368H127.413L127.488 17.5006L127.563 25.7576H128.401H129.24L129.315 17.5006L129.39 9.24368L131.084 9.21912C133.505 9.1844 133.534 9.17508 133.433 8.46738C133.344 7.84127 133.277 7.8311 128.607 7.75488C124.621 7.68968 123.845 7.74416 123.709 8.09843ZM148.168 16.7142V25.82L151.203 25.7116C155.878 25.5445 157.204 24.4484 157.204 20.7518C157.204 18.555 156.733 17.644 155.184 16.8435L154.344 16.409L155.32 15.3293C157.405 13.0224 156.844 9.66175 154.142 8.26668C153.778 8.07867 152.284 7.85369 150.824 7.76646L148.168 7.6081V16.7142ZM160.51 7.86724C160.4 7.97733 160.31 12.0477 160.31 16.9126V25.7576H161.157H162.004V21.3821C162.004 17.2124 162.169 16.3514 162.738 17.5385C162.878 17.8309 164.136 19.7996 165.534 21.9137C167.936 25.5462 168.126 25.7573 168.997 25.7573L169.919 25.7576L169.28 24.7668C168.928 24.2217 167.527 22.0692 166.166 19.9834L163.691 16.1911L166.412 12.2972C169.511 7.863 169.604 7.68939 168.882 7.69532C167.984 7.70294 168.108 7.55954 164.235 13.0546L162.146 16.0186L162.004 11.9254C161.872 8.07387 161.829 7.82743 161.287 7.7498C160.97 7.70436 160.62 7.75743 160.51 7.86724ZM106.567 9.71397C107.841 10.91 108.212 12.5592 108.208 17.0066C108.205 20.8218 108.156 21.1958 107.49 22.5113C106.985 23.5086 106.469 24.0746 105.729 24.4399C104.714 24.9415 104.65 24.9415 103.641 24.4399C103.027 24.135 102.391 23.5137 102.092 22.926C100.67 20.1336 100.645 13.8303 102.044 10.8832C102.991 8.88799 105.106 8.3412 106.567 9.71397ZM153.378 9.50198C154.59 10.0084 154.945 10.68 154.945 12.4669C154.945 13.6375 154.8 14.0547 154.135 14.7986C153.408 15.6118 153.133 15.7171 151.453 15.8241L149.58 15.9433V12.711C149.58 10.9335 149.664 9.39414 149.768 9.29082C150.102 8.95659 152.394 9.09068 153.378 9.50198ZM49.379 11.0786C49.6357 11.622 49.9308 12.7971 50.0347 13.6897L50.2236 15.3129H47.7766H45.3295L45.5322 13.8309C45.9182 11.0102 46.6682 9.87093 48.0507 10.0061C48.72 10.0716 49.0165 10.311 49.379 11.0786ZM36.3465 17.0066V23.7816H33.9963H31.646L32.1286 21.8761C32.7035 19.6062 33.2403 14.9312 33.2403 12.1967V10.2317H34.7934H36.3465V17.0066ZM178.902 19.3073C178.811 21.6503 178.71 22.0799 177.997 23.1343C175.923 26.2005 172.738 24.8323 172.736 20.874C172.734 17.9246 173.799 16.7128 176.622 16.4519C177.668 16.3554 178.631 16.3644 178.763 16.472C178.895 16.5798 178.958 17.8555 178.902 19.3073ZM142.475 19.3863C142.367 22.6956 142.019 23.4764 140.209 24.4678C139.33 24.9486 139.107 24.9689 138.312 24.6397C137.052 24.1181 136.467 22.8783 136.498 20.7975C136.545 17.6514 137.744 16.4745 140.922 16.4531L142.572 16.4421L142.475 19.3863ZM153.523 17.3753C155.438 18.0347 156.286 20.3591 155.392 22.4983C154.794 23.9281 153.806 24.4416 151.601 24.4661L149.721 24.4873L149.642 20.747L149.563 17.0066L151.054 17.0224C151.874 17.0312 152.985 17.1901 153.523 17.3753Z" fill="white"/>
</svg>
