<svg width="46" height="42" viewBox="0 0 46 42" fill="none" xmlns="http://www.w3.org/2000/svg">
<path fill-rule="evenodd" clip-rule="evenodd" d="M8.00679 0.399019C7.4237 0.534653 7.25138 0.824602 6.24639 3.36021L5.30078 5.74629V10.7612C5.30078 15.5072 5.30959 15.7841 5.46511 15.9227C5.69115 16.1243 6.15924 16.1087 6.37891 15.8922C6.55392 15.7197 6.55859 15.5971 6.55859 11.1556V6.59613H13.5215H20.4844V11.6027C20.4844 16.9972 20.479 16.9318 20.9531 17.2591C21.1613 17.4028 21.6125 17.4407 21.8858 17.3374C21.973 17.3045 22.8152 16.6026 23.7575 15.7776C24.6998 14.9527 25.5201 14.2587 25.5804 14.2354C25.6408 14.2121 26.3686 14.7845 27.1978 15.5074C29.4821 17.4989 29.3476 17.3973 29.7009 17.3973C30.1148 17.3973 30.4857 17.2016 30.6192 16.9128C30.6984 16.7415 30.7266 15.3591 30.7266 11.6384V6.59613H37.6895H44.6523V21.2516C44.6523 37.5723 44.7061 36.2467 44.0366 36.4299C43.6287 36.5416 31.8047 36.555 31.8047 36.4438C31.8047 36.4014 32.1036 36.3479 32.469 36.3248C33.4849 36.2606 34.1174 35.8409 34.5112 34.9702C34.93 34.0441 34.706 32.9891 33.9471 32.3135L33.5844 31.9905L33.7671 31.7987C34.2483 31.2936 34.4774 30.1276 34.2254 29.4658C34.067 29.0494 33.695 28.5783 33.3472 28.3534C33.1659 28.2362 30.7022 27.2113 27.8722 26.0758C25.0423 24.9403 22.7399 23.9985 22.7556 23.983C22.7714 23.9675 23.8877 23.6177 25.2361 23.2057C26.6433 22.7759 27.8356 22.3605 28.0343 22.2309C28.7159 21.7864 29.0806 20.7526 28.8511 19.9158C28.7383 19.5047 28.2236 18.8706 27.8471 18.6787C27.2212 18.3598 26.8071 18.353 25.4258 18.6391C18.2758 20.12 14.5778 20.7978 12.1552 21.0717C10.6013 21.2473 10.2742 21.2316 10.319 20.9829C10.4901 20.0344 10.3866 19.6065 9.90662 19.2769C9.59055 19.0599 5.85027 17.5743 5.61991 17.5743C5.25433 17.5743 4.66864 17.9418 4.49291 18.2813C4.08295 19.073 0 29.0836 0 29.2969C0 29.609 0.20116 30.0636 0.426758 30.2616C0.686496 30.4894 4.28501 31.9297 4.72434 31.9816C5.16566 32.0339 5.57094 31.8515 5.85512 31.4727C5.96419 31.3275 6.11054 31.2086 6.18044 31.2086C6.41484 31.2086 7.82755 31.9091 8.38853 32.3036C8.69391 32.5183 9.34052 33.1162 9.82522 33.6321C10.31 34.148 10.9762 34.771 11.3055 35.0165C11.8562 35.4272 12.9803 36.0412 13.7461 36.3496C14.0284 36.4634 13.7217 36.4787 10.7457 36.4995C6.42715 36.5298 6.56237 36.5853 6.55994 34.7819C6.55877 33.9567 6.53155 33.7628 6.39292 33.594C6.18844 33.3452 5.73778 33.3252 5.48164 33.5537C5.31722 33.7004 5.30087 33.8242 5.30168 34.9186C5.30249 35.9998 5.32432 36.1682 5.51659 36.5752C5.63437 36.8244 5.86859 37.1319 6.03714 37.2586C6.72265 37.7739 6.55428 37.7601 12.1568 37.7601H17.3115L21.7359 39.5363C25.8763 41.1986 26.1966 41.3125 26.7282 41.3125C27.9822 41.3125 29.0195 40.3364 29.0195 39.1564V38.8468L29.5361 38.7883C30.173 38.7162 30.9386 38.3607 31.1961 38.0175L31.3893 37.7601L37.7737 37.7595C42.103 37.7593 44.2739 37.728 44.5176 37.6625C44.9903 37.5355 45.739 36.786 45.8896 36.289C45.975 36.007 46 32.5221 46 20.8807V5.83695L45.0216 3.37739C44.4834 2.02459 43.9545 0.824867 43.8463 0.71119C43.7379 0.597601 43.473 0.460904 43.2575 0.40743C42.7539 0.282508 39.825 0.280206 39.4633 0.404508C38.9584 0.577946 38.881 1.30153 39.3413 1.54429C39.449 1.60104 40.1937 1.63823 41.2218 1.63823H42.9243L43.3512 2.72277C43.586 3.31922 43.91 4.13347 44.0711 4.53214C44.2323 4.93081 44.3414 5.27936 44.3136 5.30681C44.2858 5.33425 41.1979 5.35665 37.4515 5.35665H30.6401L30.5927 5.15745C30.5666 5.04794 30.3712 4.22121 30.1586 3.32037L29.7717 1.6825L32.4235 1.65903C35.0003 1.63619 35.0811 1.63017 35.2818 1.44434C35.6474 1.10596 35.5175 0.576352 35.0276 0.408049C34.6907 0.292336 8.5029 0.283571 8.00679 0.399019ZM21.4727 1.69029C21.4727 1.80804 20.6589 5.20482 20.6132 5.27759C20.5548 5.37064 6.91797 5.38737 6.91797 5.29441C6.91797 5.23802 7.93464 2.61901 8.22555 1.92596L8.3463 1.63823H14.9095C18.5192 1.63823 21.4727 1.6616 21.4727 1.69029ZM28.8465 3.45317C29.0773 4.42705 29.2487 5.25378 29.2273 5.29025C29.1701 5.38844 22.0117 5.37312 22.0117 5.27485C22.0117 5.22978 22.1937 4.4166 22.416 3.4676C22.6384 2.5187 22.8203 1.71826 22.8203 1.68896C22.8203 1.65965 24.0818 1.6462 25.6236 1.65912L28.4268 1.6825L28.8465 3.45317ZM29.4688 11.1664C29.4688 15.445 29.459 15.729 29.317 15.6153C29.2335 15.5485 28.5766 14.981 27.857 14.3543C27.1376 13.7275 26.4185 13.116 26.2591 12.9953C25.9155 12.7352 25.4387 12.7067 25.0988 12.9262C24.8884 13.0621 22.847 14.8153 22.124 15.481L21.832 15.7498V11.173V6.59613H25.6504H29.4688V11.1664ZM7.48371 19.6371C8.87602 20.1922 9.07826 20.2975 9.04816 20.4517C9.00387 20.6794 4.93763 30.5194 4.84572 30.6214C4.75004 30.7276 1.33283 29.3494 1.36616 29.2181C1.38072 29.1609 2.34268 26.8162 3.50391 24.0077C5.1582 20.0065 5.64443 18.9117 5.75 18.9503C5.82412 18.9773 6.60432 19.2864 7.48371 19.6371ZM27.2174 19.8293C27.7234 20.0871 27.7323 20.9354 27.2317 21.1994C27.1296 21.2533 25.6092 21.7358 23.8532 22.2717C22.0973 22.8075 20.5616 23.2903 20.4408 23.3445C20.1684 23.4669 20.0347 23.8243 20.1441 24.1382C20.2449 24.4277 19.8953 24.275 26.8184 27.0515C29.882 28.2802 32.4969 29.3603 32.6293 29.4517C33.1409 29.8052 33.1479 30.6361 32.6426 31.0278C32.135 31.4211 32.1318 31.4202 27.7641 29.6641C25.5171 28.7606 23.591 28.0213 23.484 28.0213C22.9624 28.0213 22.6767 28.7227 23.0524 29.0805C23.1471 29.1707 25.3876 30.1099 28.0312 31.1677C31.3889 32.5112 32.9153 33.1643 33.0948 33.3342C33.2806 33.5101 33.3646 33.69 33.3982 33.9842C33.4411 34.3592 33.4199 34.4154 33.1278 34.7033C32.831 34.9958 32.6474 35.059 32.209 35.0199C32.1102 35.011 29.8334 34.1232 27.1495 33.0468C21.8714 30.9301 21.9629 30.9562 21.6638 31.4814C21.4697 31.8221 21.5932 32.1493 21.9907 32.3476C22.1752 32.4397 23.8423 33.122 25.6953 33.8638C30.0915 35.6237 30.1426 35.647 30.3154 35.9764C30.6892 36.6885 30.1876 37.4945 29.3707 37.4945C29.2643 37.4945 27.3415 36.7574 25.0981 35.8566C22.8546 34.9558 20.9649 34.2187 20.8986 34.2187C20.8323 34.2187 20.6716 34.3013 20.5414 34.4022C20.2525 34.6262 20.2176 35.0875 20.4723 35.3147C20.5646 35.3969 22.0908 36.0463 23.8639 36.7579C25.6371 37.4693 27.1962 38.1261 27.3285 38.2172C27.6144 38.414 27.7981 38.9006 27.7195 39.253C27.6885 39.3921 27.5453 39.6172 27.4012 39.7532C26.8976 40.2286 26.9656 40.2497 20.0352 37.4619C16.5515 36.0605 13.4586 34.7931 13.1621 34.6455C12.4154 34.2736 11.9123 33.8937 11.2305 33.1865C9.52254 31.4152 8.69229 30.7942 7.26018 30.217L6.56911 29.9385L6.70387 29.6218C6.77799 29.4476 7.40645 27.9306 8.10049 26.2507C8.79445 24.5707 9.44033 23.0152 9.53584 22.7939L9.70941 22.3916L10.5521 22.4279C11.6126 22.4735 12.631 22.36 15.6777 21.8566C17.8478 21.4981 23.6909 20.3514 25.6953 19.8907C26.6385 19.6739 26.8924 19.6637 27.2174 19.8293Z" fill="#9E9E9E"/>
</svg>
